<?xml version="1.0" encoding="UTF-8"?><svg width="88" height="26" viewBox="0 0 88 26" xmlns="http://www.w3.org/2000/svg" xmlns:xlink="http://www.w3.org/1999/xlink"><svg width="18" height="18" viewBox="-1 -1 18 18" id="iconDate" xmlns="http://www.w3.org/2000/svg"><path d="M6.137 3.5c-.051.05-.086.281-.086.52 0 .242.035.472.086.52.062.065.539.085 1.699.085 1.871 0 1.844.008 1.844-.605 0-.61.027-.602-1.844-.602-1.16 0-1.637.02-1.7.082zm0 0"/><path d="M4.738 4.02c-.375.136-.601.316-.86.671l-.214.305-.02 2.926-.023 2.933.2.391c.16.313.28.441.593.617l.383.239h3.012c2.562 0 3.05-.016 3.28-.11.333-.14.548-.347.782-.746l.191-.32V8.043c0-2.676-.003-2.902-.132-3.133-.309-.574-.797-.91-1.438-.973l-.387-.042v.32c0 .562.032.555-2.285.555-1.48 0-2.047-.024-2.113-.086-.047-.051-.086-.243-.086-.426v-.344h-.297c-.172.008-.433.05-.586.106zm7.028 4.812c-.008 1.703-.028 2.008-.13 2.207-.171.336-.312.484-.616.64-.25.13-.465.137-3.16.137-2.813 0-2.915-.007-3.22-.152a1.426 1.426 0 01-.5-.441l-.19-.282-.02-2.058-.024-2.051 3.938.016 3.937.02zm0 0"/><path d="M4.84 8.293v.61l.59-.02.586-.024V7.723l-.586-.024-.59-.02zm0 0M7.262 8.293v.61l.59-.02.582-.024V7.723l-.582-.024-.59-.02zm0 0M9.68 8.293v.61l.59-.02.585-.024V7.723l-.585-.024-.59-.02zm0 0M4.89 9.516c-.03.023-.05.3-.05.605v.555h1.21v-.563c0-.449-.023-.57-.112-.605-.153-.055-.993-.055-1.047.008zm0 0M7.309 9.516c-.028.023-.047.3-.047.605v.555h1.207v-.52c0-.304-.035-.554-.086-.605-.09-.09-.996-.121-1.074-.035zm0 0M9.73 9.508c-.03.031-.05.308-.05.613v.555h1.218l-.023-.59-.02-.586-.535-.02c-.3-.007-.562 0-.59.028zm0 0"/></svg><svg width="26" height="26" viewBox="-1 -1 26 26" id="iconLinkedin" x="18" xmlns="http://www.w3.org/2000/svg"><path d="M0 12v12h24V0H0zm7.344-6.93c.336.125.726.489.89.828.106.215.133.329.133.618 0 .304-.02.394-.156.664-.176.363-.406.578-.832.773-.371.176-.98.184-1.379.024a1.77 1.77 0 01-.867-.786c-.121-.238-.14-.328-.14-.652 0-.309.023-.422.12-.633.387-.8 1.34-1.164 2.23-.836zm9.25 3.957c1.097.227 1.953 1.032 2.304 2.176l.11.352.015 3.758.012 3.765h-2.863v-2.945c0-1.617-.024-3.086-.047-3.27-.09-.675-.355-1.125-.816-1.37-.215-.11-.286-.126-.73-.126-.454 0-.517.008-.813.149-.375.18-.778.546-.97.882l-.14.243v6.437H9.844V9.234h2.812v.399c0 .355.04.476.114.355.054-.09.71-.492 1.05-.644a4.423 4.423 0 012.774-.317zm-8.532 5.13v4.921H5.25V9.234h2.813zm0 0"/></svg><svg width="18" height="18" viewBox="-1 -1 18 18" id="iconTag" x="44" xmlns="http://www.w3.org/2000/svg"><path d="M1.121.02A1.616 1.616 0 00.68.18a2.334 2.334 0 00-.5.5 1.417 1.417 0 00-.16.468C.004 1.23 0 2.012.004 3.672L.012 6.07l.047.215c.129.57.421 1.207.714 1.555.137.16 7.774 7.812 7.875 7.887.442.335 1.079.359 1.551.058.117-.074.563-.512 2.82-2.777 1.833-1.836 2.704-2.727 2.758-2.805.157-.234.211-.426.211-.746 0-.316-.062-.527-.238-.781-.035-.055-1.816-1.848-3.957-3.985-3.285-3.28-3.914-3.902-4.055-4A4.27 4.27 0 006.278.06L6.07.012 3.645.008A99.559 99.559 0 001.12.02zm2.602 2.05c.375.098.691.364.879.73.144.29.168.712.054 1.036-.117.34-.445.672-.789.805a1.398 1.398 0 01-1.066-.04C2.293 4.349 2 3.856 2.035 3.31c.024-.41.203-.754.527-1.004.196-.145.356-.215.598-.262a2.11 2.11 0 01.563.027zm0 0"/></svg><svg width="26" height="26" viewBox="-1 -1 26 26" id="iconTwitter" x="62" xmlns="http://www.w3.org/2000/svg"><path d="M14.64 5.926c-.288.02-.43.047-.734.144-.984.32-1.8 1.227-2.027 2.25a3.92 3.92 0 00-.031 1.13l.039.238-.23-.02a8.754 8.754 0 01-4.989-2.055 10.101 10.101 0 01-.941-.93 2.851 2.851 0 00-.18-.199c-.027-.007-.2.375-.274.621-.109.34-.136.536-.136.922 0 .676.18 1.23.574 1.786.152.218.453.53.644.667.07.047.122.094.118.094a1.87 1.87 0 01-.293-.027 3.173 3.173 0 01-.899-.266.672.672 0 00-.16-.066c-.062 0 .027.633.137.96a3.098 3.098 0 001.922 1.97c.133.043.261.082.289.082.027 0 .05.011.05.023 0 .066-.769.129-1.09.086a1.163 1.163 0 00-.234-.02c-.015.016.121.34.22.52.487.89 1.339 1.46 2.37 1.586l.262.031-.211.149a6.127 6.127 0 01-2.063.957c-.597.152-.78.171-1.539.175-.382 0-.691.008-.68.016a8.753 8.753 0 003.129 1.207c.56.105.919.133 1.57.133.645 0 1-.031 1.587-.13a8.342 8.342 0 005.265-3.183 9.092 9.092 0 001.868-5.46V8.94l.21-.164a6.146 6.146 0 001.204-1.261c.082-.118.101-.16.062-.141a8.043 8.043 0 01-.91.309c-.277.07-.754.16-.77.144-.007 0 .075-.058.172-.129.25-.172.61-.547.797-.836.196-.297.387-.734.309-.699-.012.008-.184.09-.379.188-.434.214-.773.34-1.203.449l-.32.086-.141-.133c-.645-.606-1.457-.89-2.363-.828zm0 0"/></svg></svg>