<svg version="1.0" xmlns="http://www.w3.org/2000/svg" width="252" height="356" viewBox="0 0 189 267"><path d="M124.5 5.5C115 8.2 93.2 19.8 52 44.5 11.8 68.6 4.7 73 6.7 73c.5 0 1.3-.4 1.8-.9.6-.5 10.9-6.1 23-12.6s28.7-16 36.9-21.2c25.7-16.4 46-26.4 61.3-30.4 10-2.5 13.7-2.4 20.2.6 4 1.9 5 2.1 4 .9-4.2-5.1-18.2-6.9-29.4-3.9z"/><path d="M130.5 9.4C123 11.2 98 22.1 95.2 24.8c-.8.7-2.7 1.6-4.3 1.9-1.6.3-2.7.9-2.4 1.3.2.4-1.5 1.7-3.8 3s-4.8 3-5.5 3.7c-.7.7-4 2.9-7.4 4.8-3.3 2-6.6 4.2-7.4 5-.8.7-2.4 1.7-3.6 2.1-1.1.3-4.4 2-7.2 3.7C50.8 51.9 42 56.7 34 60.8c-8 4.1-17.6 9.4-21.5 11.8-10 6-9.8 7.1 3.9 14.5 6 3.2 11 5.9 11.1 5.9.2 0 .5-1.3.8-3 .5-2.1 2.7-4.6 7.7-8.7 12.9-10.6 19.7-14 52.5-26 22.4-8.2 40.1-11.4 51.6-9.3 7 1.3 13.9 4.4 13.9 6.3.1 3.3 2.1-3 3.5-10.8 2.8-16.4 1.7-23.6-4.4-28.8-5.5-4.6-12.9-5.7-22.6-3.3zm24.9 18.5c.9 1.3-.4 4.1-1.9 4.1-.9 0-1.4-3.2-.6-4.8.3-.6 2-.1 2.5.7zm-2.7 10.6c-1.3 2.6-3.3 3.5-2.3 1 .3-1-.1-1.5-1.2-1.5-1.2 0-1-.4.8-1.4 3.3-1.7 4.1-1.2 2.7 1.9z"/><path d="M115.5 48.6c-17.4 3.8-60.6 20.4-70 26.9-8.4 5.8-13.7 10.7-15.1 14.1-1.3 3.1-1.2 3.6 1.1 7 1.4 2 3 5.5 3.6 7.8.6 2.3 1.3 4.7 1.5 5.3.2.7 4.7-3 9.9-8.2 5.3-5.2 10.3-9.5 11.1-9.5.8 0 1.4-.4 1.4-.9 0-.4 1.8-2.1 4-3.6s4-3.4 4-4.1c0-2.1 5.2-5.1 11.2-6.3 3.2-.7 6-1.7 6.3-2.2.4-.5 2-.9 3.6-.9 1.7 0 2.8-.4 2.4-1-.8-1.3 4.8-4 8.4-4 2.5 0 2.9.3 2.4 1.7-.5 1.5-.4 1.6.8.7 1.4-1.1 11.2-3.3 17.9-4 15.7-1.7 27.2-3.2 26-3.4-.8-.1-2-.2-2.7-.1-.6.1-1.4-.2-1.6-.6-.3-.5 1-.9 2.9-.9s3.4.3 3.4.6c0 .6 10.2 6 11.4 6 .3 0 .3-.7 0-1.5-.4-.8-1.5-1.5-2.6-1.5-1.5 0-1.9-.5-1.5-2 .3-1 0-2.1-.7-2.3-.6-.2-1.1-2.1-1.1-4.3 0-3.7-.2-4-5.7-6.7-4.8-2.4-7.2-2.9-15.5-3.3-6.5-.2-12.2.1-16.8 1.2zm35.7 6.7c1.2 2 .9 2.7-.9 2.1-1.6-.5-1.6-.4 0 .6 3.2 2 .4 3.9-4.6 3-2.3-.5-4.4-.8-4.7-.8-.2 0-.6-.5-.8-1-.1-.5.9-.7 2.4-.4 2.7.5 2.7.5.8-1.5-1-1.1-2.2-1.8-2.6-1.6-1 .5-1-1.1-.1-2.1 1.1-1.1 9.7.4 10.5 1.7z"/><path d="M156.6 61.3c.3 1 .9 1.5 1.2 1.2.3-.3 0-1.1-.7-1.8-1-.9-1.1-.8-.5.6zm-28.1 6.5c-1.6.2-3.4.8-4 1.4-.7.8-.4.9 1 .4 1.1-.4 6.5-.9 12-1.1C148.6 68 158 70.1 158 73c0 .9-.3 1.1-.8.5-.7-1-1.3-1.2-6.7-2.3-5.2-1.1-15.7-.7-32 1.3-2.2.2-7.1.7-11 .9-3.8.3-8.5 1.2-10.3 2.1-1.8.9-3.9 1.5-4.6 1.2-.7-.3-2.9.7-4.7 2.2-4.4 3.6-11 6.1-15.9 6.1-3.1 0-3.8.3-3.4 1.5.4 1.1 0 1.5-1.6 1.5-2 0-6 2.9-4.3 3.1 1.3.2 1.4.2 8.8-2.6 22.8-8.6 28.8-10.4 20.3-6-2.6 1.4-4.9 2.9-5.3 3.5-.3.5-1.1 1-1.6 1-.6 0-.7-.5-.4-1 .9-1.5-.2-1.2-1.9.6-.9.8-2.6 1.7-3.8 1.8-2.7.4-7.8 2.4-6.3 2.6.9 0-8 5-9.1 5-.3 0-.2-.5.1-1 .4-.6-.5-.5-1.9.2-1.4.6-2.6 1.5-2.6 2 0 .4-.4.8-.9.8-1.6 0-11.5 7-15.8 11.3-4.8 4.6-5.3 7-2.3 11.9 1.1 1.8 2 3.9 2 4.5 0 .7 1.3 4.1 2.9 7.5 1.6 3.5 3.3 7.5 3.6 9 .4 1.6 1.1 2.8 1.5 2.8 1 0 2-2.6 2-5.1 0-2.1 1.6-2.4 4-.9 1.1.7 2.3.1 4.7-2.2 4-3.9 5.9-3.2 6.7 2.4.4 2.4 1.5 5.7 2.6 7.3 1.1 1.7 2.5 3.9 3.2 5 1.8 2.7 3.6 4.2 8.1 6.6 6.1 3.2 6.4 2.7 6-11.3-.3-6.7-.6-12.5-.9-12.7-.2-.2-1.2.3-2.1 1.2-1 .8-3 1.9-4.6 2.2-7.4 1.9-14-2.8-21.5-15.2-5.5-9.2-5.6-13.1-.7-18l3.6-3.6 8.5.6c6.4.5 9.1 1.1 11.1 2.7 1.4 1.1 2.9 1.8 3.2 1.4.3-.3-.2-1.1-1.2-1.8-2-1.5-2.2-2.8-.4-2.5.6.1 2.1-.1 3.2-.5s3.2-1.2 4.7-1.8c2.1-.8 4.6-.4 12 2 5.1 1.7 11.3 3.6 13.7 4.2 4.9 1.3 14.1 6.8 16.8 10.1 1 1.1 3.4 2.9 5.5 4 4.7 2.4 8.4 6.9 6.6 8.1-.7.4-2.2.8-3.3.8-2.9.1-6.6 3.5-5.9 5.4.3.9 1 1.6 1.5 1.6 2.2 0 .5 2.1-4.1 4.9-2.7 1.7-5 3.5-5 4.1 0 1.8 5.6 1 9.2-1.3 7.1-4.6 10.4-5.8 14.8-5.4 2.4.2 4.5.8 4.7 1.4.2.5-2.5 1.7-5.9 2.7-5.2 1.4-7.1 2.6-10.9 6.7-4.1 4.4-4.9 4.9-8.9 4.9-3.1 0-5.5.8-8.2 2.6-4.5 3.2-4.8 4.4-1 4.5 2.2 0 1.9.3-2 1.7-2.6.9-5.3 2.3-6 2.9-.6.7-2 1.3-3 1.3-1.1 0-3 1.1-4.3 2.4-1.3 1.4-3.3 2.7-4.4 3.1-1 .3-2.2 1.2-2.4 1.9-.3.8-2.2 1.9-4.2 2.6-3 1-4 .9-6.2-.5C87 173.9 75 172 75 173.2c0 .3 7.5 5.5 16.8 11.6 9.2 6.1 17.8 12.2 19.1 13.6 4.7 5 12.3 2.1 13.6-5.3l.6-3.9 12.9-5.6c7.5-3.3 14.3-5.6 16.4-5.6 4.7 0 7.6-3.7 7.6-9.7v-4.5l-2.9 3.1c-2.5 2.7-3.6 3.1-7.9 3.1-5.7 0-10.2-1.4-10.2-3.1 0-.6-1.1-2.2-2.5-3.5-1.4-1.3-2.5-2.7-2.5-3.1.1-.9 8.5-7.3 9.7-7.3.4 0 1.9-.9 3.3-2 2.4-1.9 9-2.8 9-1.3 0 .5-1.8 2.6-4 4.7s-3.7 4.3-3.4 4.7c.3.5 2 .9 3.9.9 1.8 0 4 .6 4.8 1.4 1.2 1.3 1.4.7 1.3-4.7-.1-3.4-.6-7.4-1-8.8-.6-2.3-.3-2.9 2.8-4.7 4-2.4 4.4-3.7 2-7-2.1-3.1-1.4-4.3 4-7 3.3-1.7 4.6-2.9 4.6-4.4 0-1.2-2.7-5.4-6-9.3-3.2-4-5.6-7.5-5.3-7.9.4-.3 2.2-.6 4.2-.6 2-.1 5.9-.9 8.6-1.8 6.6-2.3 6.8-4.8.5-7.9-6.2-3.1-16.7-4.8-43-7-2.5-.2-6.3-.5-8.5-.7-2.2-.1-10-.6-17.2-1.1-7.4-.4-13-1.1-12.7-1.6.3-.5 2.6-.7 5.2-.4 3.1.3 5.4-.1 6.9-1 3.9-2.6 17.6-5.7 27.3-6.2 9.6-.5 24.2 1.5 26.4 3.7 1.4 1.4 2.6 1.2 2.6-.3 0-3.3-6.4-7.2-15.2-9.2l-6.3-1.4 5.9.5c7.4.7 10.4 1.8 13.9 5.2l2.7 2.6-.2-3.9c-.3-3.7-.6-4-6.7-6.7-5.8-2.7-7.2-2.9-15.5-2.6-5 .1-10.4.4-12.1.6zM136 73c0 .5-.5 1-1.1 1-.5 0-.7-.5-.4-1 .3-.6.8-1 1.1-1 .2 0 .4.4.4 1zm4.7 27.6c-.2.2-1.2.1-2.2-.3-1.8-.6-1.8-.7.1-1.3 1.7-.7 3.3.5 2.1 1.6zm18.9 22.3c-.3.5-1.6 1.1-2.8 1.4-2.2.6-2.2.5-.4-.8 2.2-1.7 4-2 3.2-.6zm3.4 3.5c-2.5.7-5.3 1.6-6.2 2.1-1 .4-1.8.4-1.8.1 0-1.2 6.4-3.5 9.5-3.5 2.6 0 2.4.2-1.5 1.3zm3 2.5c0 .5-1.1 1.1-2.5 1.3-1.4.3-2.5.3-2.5.1 0-.3 3.4-1.9 4.8-2.2.1-.1.2.3.2.8zm-23 3.6c-.7.9-1.5 1.3-1.7 1.1-.7-.7.7-2.6 1.9-2.6.6 0 .6.6-.2 1.5zM114.5 70c-1.3.6-1.5.9-.5.9.8 0 2.2-.4 3-.9 1.8-1.2.2-1.2-2.5 0z"/><path d="M83.9 78.4c-.4.4-4.2 1.2-7.1 1.5-.5.1-.8.8-.8 1.5 0 1.3.5 1.3 3.8 0 3.4-1.5 6.3-3.4 5.1-3.4-.3 0-.8.2-1 .4zm62.7 3.5c-.4.6 0 1.4.9 1.7.9.4 1.3 1.3 1 2.4-.4 1.3.2 1.9 2.6 2.4 4.6.9 7.9.7 7.9-.4 0-.5-1.1-1.2-2.5-1.6-1.4-.3-2.5-1-2.5-1.5s-1.1-.9-2.5-.9c-1.3 0-2.8-.7-3.3-1.6-.6-1.1-1.1-1.3-1.6-.5zm8.1 5.7c-.3.3-1.2.4-1.9.1-.8-.3-.5-.6.6-.6 1.1-.1 1.7.2 1.3.5zm-30-2.6c-.4 1.6 0 2 1.7 2 1.5 0 2.2-.7 2.3-2 .1-1.3-.4-2-1.6-2-1 0-2.1.9-2.4 2zm6.3 0c0 .5.5 1 1 1 .6 0 1-.5 1-1 0-.6-.4-1-1-1-.5 0-1 .4-1 1zm1.5 2c-.3.5.3 1 1.5 1s1.8-.5 1.5-1c-.3-.6-1-1-1.5-1s-1.2.4-1.5 1zM64 103.8c-3 .9-4.9 3.5-5.5 7.6-.5 3.4-.2 5 1.7 8.2l2.3 3.9.5-4c.8-5.5 1.6-6.5 5.6-6.5 4.1 0 4.2.6.9 3.2-4.8 3.8-2.6 7.7 4.2 7.6 5.9-.1 7.4-1.3 4.4-3.7-2.2-1.7-2.3-2.1-1.2-4.9.7-1.7 2-3.3 2.9-3.7 3.5-1.3-12-8.9-15.8-7.7zm18 22.7c-.7.8-2.4 1.5-3.9 1.5-2.3.1-2.4.2-.7 1.1 2.3 1.4 6.6-.3 6.6-2.6 0-1.9-.4-1.9-2 0zm-17 .5c0 1 3.3 3 4.9 3 2.2 0 1-1.8-1.9-2.9-1.7-.5-3-.6-3-.1zm-10.5 31.2c1.1.6 3.6 2.5 5.5 4.1 2.3 2 3.5 2.6 3.8 1.7.3-.7-.1-1.6-.8-2-.7-.4-.9-1.3-.6-1.9.8-1.3-.2-1.7-5.9-2.5-3.3-.4-3.7-.3-2 .6zm6.2 1.4c-.3.3-1.2.4-1.9.1-.8-.3-.5-.6.6-.6 1.1-.1 1.7.2 1.3.5zM65 165c0 .5.5 1 1.1 1 .5 0 .7-.5.4-1-.3-.6-.8-1-1.1-1-.2 0-.4.4-.4 1zm-19.7 3.2c-1.1 1.3-2.8 3.6-3.6 5.3-.8 1.6-3.3 4.7-5.5 6.9l-4 3.8 2.9 4.9c1.6 2.7 3.9 6.3 5.1 7.9 1.2 1.6 1.9 3.2 1.6 3.5-.2.3-2.7-2.6-5.4-6.5-2.7-3.8-5.7-7.2-6.6-7.5-1-.4-4 .5-6.8 1.9-2.7 1.4-8.1 3.4-12 4.6-3.8 1.1-7.2 2.4-7.5 2.9-.9 1.5-1.4 40-.7 55.6l.7 15h32.3c24.8 0 32.6-.3 33.4-1.2.6-.7 1.5-1.3 2-1.3s2.5-1.6 4.5-3.5 4.3-3.5 5.2-3.5c1.4.1 1.3.2-.2 1.1-.9.5-2.7 2-4 3.2-1.2 1.2-3.3 3-4.7 3.9-2.4 1.6-.8 1.7 31.7 1.7l34.1.1.7-6.8c.3-3.7 1.1-7.9 1.7-9.4.6-1.5.8-4.1.6-5.8-.3-1.6-.2-3 .2-3 1.2 0 3.3 5.4 3.1 7.8-.2 1.3-.3 5.7-.4 9.8l-.2 7.4h8.3c8.4 0 9.5-.7 4.9-3.2-2-1-2.1-1-.8.5 1.2 1.5 1.1 1.7-.2 1.7-1.9 0-4.7-3.7-4.7-6.3 0-1.3.5-1.7 1.5-1.3 2.8 1 1.5-2-2.5-5.9-3-2.9-4-4.7-3.9-7l.1-3 .8 2.7c.8 2.6 4.4 7.3 13.5 17.5 3.4 3.8 4.5 4.4 7.2 4.1l3.2-.3-2.3-5.7c-3.2-7.9-11.5-17.7-21.6-25.7-11.3-8.9-11.5-9-9.5-5.1 2.3 4.5 1.2 4.9-1.5.5-1.2-2-2-3.9-1.6-4.2.3-.3-.8-3-2.4-5.8-1.7-2.9-3-5.7-3-6.3 0-.6-.5-2.3-1.2-3.9l-1.1-2.8-.7 3.5-.6 3.5-3.2-6.3c-2.6-5-3.7-6.2-5.6-6.2-2.2 0-2.7 1-5.1 8.5-1.5 4.7-2.5 9.1-2.2 9.8.3.7-.3 1.8-1.2 2.4-1.4.9-3.3-.8-11.7-10.6-10.2-11.9-24.9-25.7-38.6-36.3-4.3-3.3-8-6.8-8.3-7.9-.8-2.5-1.7-2.4-4.2.3zm8.2 52.5c3.6 7.5 9.5 21.7 9.1 22-.6.6-4.6-5.3-4.6-6.8 0-1.1-4.8-12.7-7.1-17.2-.5-.9-.5-1.7-.1-1.7.5 0 1.7 1.7 2.7 3.7zm60.5 11.2c-.1 1.1-6-5.9-6-7.1 0-.6 1.4.6 3 2.7 1.7 2.1 3 4.1 3 4.4zm-18 9.6c0 .9-10.2 13-11.2 13.4-.5.1 1.5-2.9 4.4-6.7 4.7-6.3 6.8-8.3 6.8-6.7zm-11 1.9c-3 1.7-9.8 3.2-8.7 2 1-1 7.4-3.2 9.7-3.3.8 0 .4.6-1 1.3z"/></svg>