<svg version="1.0" xmlns="http://www.w3.org/2000/svg" width="1200" height="682.667" viewBox="0 0 900 512"><path d="M360.6 111.5c-50.1 10.4-85.7 52.3-87 102.3l-.3 10.4-6.4 4.7c-39.8 29.4-52.7 83-30.4 127.1 11.5 22.9 32.8 41.4 56.9 49.6 16.5 5.6 10.2 5.4 158.5 5.4 114 0 138-.2 144.2-1.4 30.8-5.9 56.1-25.1 69.9-53.1 7.7-15.5 9.5-23.8 9.5-43 0-18.2-1.3-25.3-7.4-39.5-4.6-10.8-10.6-19.5-19.5-28.9-18.2-18.9-40.1-28.6-67.3-29.8l-13.2-.6-2.1-5.8c-4-10.5-10.8-20.9-19.9-29.9-9.8-9.8-17.1-14.9-28-19.5-13.4-5.7-20-6.9-36.7-7h-15.1l-2.9-3.9c-7.4-9.9-25.2-23.5-39-29.7-13.5-6-23.2-8-40.9-8.5-11.3-.2-18 .1-22.9 1.1zm115.3 130.6c27.6 38 28.2 39.1 24.2 44-1.9 2.3-2.5 2.4-18 2.7l-16.1.3V322c0 18.1-.3 33.6-.6 34.5-1.4 3.6-5.7 4.5-21.3 4.5-14.4 0-15.1-.1-17.8-2.4l-2.8-2.4-.3-33.6-.3-33.6H409c-7.6 0-15-.4-16.4-1-3.4-1.2-6-5.4-5.2-8.3.5-2 46.6-66.6 51.4-72.1 2.4-2.6 5.3-3.5 8.3-2.4 1.9.6 10.2 11.3 28.8 36.9z"/></svg>