<?xml version="1.0" encoding="UTF-8"?>
<svg xmlns="http://www.w3.org/2000/svg" xmlns:xlink="http://www.w3.org/1999/xlink" width="24px" height="24px" viewBox="0 0 24 24" version="1.1">
<g id="surface1">
<path style=" stroke:none;fill-rule:nonzero;fill:rgb(0%,0%,0%);fill-opacity:1;" d="M 10.730469 0.160156 C 8.21875 0.714844 7.046875 2.347656 7.046875 5.316406 C 7.046875 6.054688 7.003906 6.257812 6.8125 6.511719 C 6.628906 6.769531 6.585938 6.972656 6.585938 7.601562 C 6.597656 8.550781 6.84375 9.234375 7.496094 10.164062 C 7.761719 10.539062 8.050781 11.050781 8.15625 11.304688 C 8.96875 13.378906 10.984375 14.636719 12.800781 14.199219 C 13.996094 13.910156 15.308594 12.703125 15.8125 11.421875 C 15.949219 11.101562 16.261719 10.539062 16.527344 10.164062 C 17.199219 9.214844 17.421875 8.550781 17.414062 7.601562 C 17.414062 7.023438 17.359375 6.726562 17.210938 6.480469 C 17.050781 6.222656 16.984375 5.871094 16.953125 5.019531 C 16.898438 3.886719 16.816406 3.585938 16.238281 2.5625 C 16.121094 2.359375 15.972656 2.027344 15.898438 1.835938 C 15.609375 1.035156 14.617188 0.425781 13.152344 0.148438 C 12.203125 -0.03125 11.582031 -0.03125 10.730469 0.160156 Z M 10.730469 0.160156 "/>
<path style=" stroke:none;fill-rule:nonzero;fill:rgb(0%,0%,0%);fill-opacity:1;" d="M 6.085938 13.964844 C 2.988281 15.308594 2.15625 15.898438 1.300781 17.347656 C 0.5 18.703125 -0.214844 21.5 0.0859375 22.152344 C 0.214844 22.441406 1.632812 22.933594 3.320312 23.261719 C 9.425781 24.492188 19.675781 24.105469 23.359375 22.527344 C 24.03125 22.238281 24.097656 22.078125 23.925781 20.945312 C 23.636719 18.992188 22.792969 17.136719 21.738281 16.089844 C 21.222656 15.585938 20.820312 15.320312 19.707031 14.785156 C 18.382812 14.144531 16.121094 13.195312 16.078125 13.261719 C 16.058594 13.28125 15.875 13.976562 15.660156 14.808594 C 15.140625 16.859375 14.433594 18.757812 13.539062 20.550781 C 12.660156 22.3125 12.203125 23.058594 12 23.058594 C 11.828125 23.058594 11.574219 22.664062 10.816406 21.246094 C 9.746094 19.261719 8.796875 16.699219 8.210938 14.273438 C 8.082031 13.707031 7.910156 13.238281 7.859375 13.25 C 7.792969 13.25 6.992188 13.570312 6.085938 13.964844 Z M 6.085938 13.964844 "/>
<path style=" stroke:none;fill-rule:nonzero;fill:rgb(0%,0%,0%);fill-opacity:1;" d="M 11.019531 15.789062 C 10.898438 15.855469 10.898438 16.003906 10.996094 16.558594 C 11.1875 17.59375 11.210938 17.617188 12.0625 17.617188 L 12.789062 17.617188 L 12.960938 16.878906 C 13.175781 15.949219 13.175781 15.84375 12.960938 15.757812 C 12.714844 15.660156 11.179688 15.683594 11.019531 15.789062 Z M 11.019531 15.789062 "/>
<path style=" stroke:none;fill-rule:nonzero;fill:rgb(0%,0%,0%);fill-opacity:1;" d="M 11.058594 18.800781 C 10.964844 19.21875 10.890625 19.644531 10.890625 19.738281 C 10.898438 19.984375 11.882812 21.820312 12.011719 21.8125 C 12.140625 21.8125 13.121094 19.984375 13.132812 19.738281 C 13.132812 19.644531 13.058594 19.21875 12.960938 18.800781 L 12.789062 18.042969 L 11.230469 18.042969 Z M 11.058594 18.800781 "/>
</g>
</svg>
