<svg xmlns="http://www.w3.org/2000/svg" width="20" height="20"><path d="M9.46 3.422c-.292.105-.71.473-.866.765-.172.329-.172 1.075 0 1.403.066.125.168.27.21.32.087.086.087.094-.011.13-.793.276-1.203.542-1.738 1.108a3.439 3.439 0 00-.61.875c-.383.778-.406.91-.43 2.829l-.027 1.71-.418.872c-.39.816-.414.879-.336 1.011l.079.137 1.183.027 1.188.032.078.304c.16.637.633 1.196 1.289 1.512.344.172.406.184.949.184.535-.008.61-.02.945-.176.657-.309 1.125-.863 1.293-1.52l.078-.304 1.172-.02c1.25-.016 1.305-.027 1.301-.305 0-.066-.168-.472-.379-.898l-.375-.777-.039-1.75c-.039-1.97-.059-2.102-.453-2.88-.402-.812-1.211-1.55-2.016-1.85-.183-.071-.34-.126-.347-.134-.008-.004.074-.183.187-.394.188-.36.2-.406.176-.801-.031-.512-.16-.789-.52-1.105a1.613 1.613 0 00-1.562-.305zm.985.66c.551.285.633 1.035.16 1.484-.37.356-.867.356-1.222-.003-.445-.446-.383-1.118.133-1.446.218-.14.691-.156.93-.035zm.028 2.473c.59.086 1.03.258 1.46.554.462.329.778.684 1.04 1.176.328.621.359.875.359 2.73v1.653l.309.61c.164.331.304.632.304.667 0 .04-1.312.055-3.945.055-2.629 0-3.945-.016-3.945-.055 0-.035.023-.101.054-.156.032-.05.168-.328.309-.617l.25-.516v-1.62c0-1.84.043-2.141.367-2.763a3.182 3.182 0 011.727-1.527 3.196 3.196 0 011.71-.191zm1.16 8.18c-.16.538-.551.98-1 1.156-.922.343-1.895-.09-2.211-.985-.043-.129-.067-.246-.05-.261.023-.016.773-.036 1.667-.036h1.633zm0 0" id="surface1"/></svg>